{
	"asset":{
		"generator":"Khronos glTF Blender I/O v5.0.21",
		"version":"2.0"
	},
	"scene":0,
	"scenes":[
		{
			"name":"Scene",
			"nodes":[
				0,
				1,
				2,
				3,
				4,
				5,
				6,
				7,
				8
			]
		}
	],
	"nodes":[
		{
			"mesh":0,
			"name":"Crankshaft"
		},
		{
			"mesh":1,
			"name":"ConnectingRod",
			"translation":[
				-3.1362881660461426,
				0,
				0
			]
		},
		{
			"mesh":2,
			"name":"Piston",
			"rotation":[
				0,
				-1,
				0,
				7.549790126404332e-08
			],
			"translation":[
				-5.924050331115723,
				0,
				-0.7314893007278442
			]
		},
		{
			"mesh":3,
			"name":"CylinderHead",
			"translation":[
				-10,
				0,
				-0.301120400428772
			]
		},
		{
			"mesh":4,
			"name":"Valve",
			"translation":[
				-10.500028610229492,
				0,
				-0.30112001299858093
			]
		},
		{
			"mesh":5,
			"name":"Valve.001",
			"translation":[
				-9.5,
				0,
				-0.30112001299858093
			]
		},
		{
			"mesh":6,
			"name":"CrankSnoutThreads"
		},
		{
			"mesh":7,
			"name":"CrankSnout"
		},
		{
			"mesh":8,
			"name":"Logo",
			"translation":[
				2.372627019882202,
				0,
				0.028654009103775024
			]
		}
	],
	"meshes":[
		{
			"name":"Mesh",
			"primitives":[
				{
					"attributes":{
						"POSITION":0,
						"NORMAL":1,
						"TEXCOORD_0":2,
						"TANGENT":3
					},
					"indices":4
				}
			]
		},
		{
			"name":"Mesh",
			"primitives":[
				{
					"attributes":{
						"POSITION":5,
						"NORMAL":6,
						"TEXCOORD_0":7,
						"TANGENT":8
					},
					"indices":9
				}
			]
		},
		{
			"name":"Mesh",
			"primitives":[
				{
					"attributes":{
						"POSITION":10,
						"NORMAL":11,
						"TEXCOORD_0":12,
						"TANGENT":13
					},
					"indices":14
				}
			]
		},
		{
			"name":"Mesh",
			"primitives":[
				{
					"attributes":{
						"POSITION":15,
						"NORMAL":16,
						"TEXCOORD_0":17,
						"TANGENT":18
					},
					"indices":19
				}
			]
		},
		{
			"name":"Mesh",
			"primitives":[
				{
					"attributes":{
						"POSITION":20,
						"NORMAL":21,
						"TEXCOORD_0":22,
						"TANGENT":23
					},
					"indices":24
				}
			]
		},
		{
			"name":"Mesh",
			"primitives":[
				{
					"attributes":{
						"POSITION":25,
						"NORMAL":26,
						"TEXCOORD_0":27,
						"TANGENT":28
					},
					"indices":24
				}
			]
		},
		{
			"name":"Circle.004",
			"primitives":[
				{
					"attributes":{
						"POSITION":29,
						"NORMAL":30,
						"TEXCOORD_0":31,
						"TANGENT":32
					},
					"indices":33
				}
			]
		},
		{
			"name":"Circle.005",
			"primitives":[
				{
					"attributes":{
						"POSITION":34,
						"NORMAL":35,
						"TEXCOORD_0":36,
						"TANGENT":37
					},
					"indices":38
				}
			]
		},
		{
			"name":"Plane.002",
			"primitives":[
				{
					"attributes":{
						"POSITION":39,
						"NORMAL":40,
						"TEXCOORD_0":41,
						"TANGENT":42
					},
					"indices":43
				}
			]
		}
	],
	"accessors":[
		{
			"bufferView":0,
			"componentType":5126,
			"count":663,
			"max":[
				1.5626649856567383,
				0,
				1.4307054281234741
			],
			"min":[
				-1.4392585754394531,
				0,
				-1.4307054281234741
			],
			"type":"VEC3"
		},
		{
			"bufferView":1,
			"componentType":5126,
			"count":663,
			"type":"VEC3"
		},
		{
			"bufferView":2,
			"componentType":5126,
			"count":663,
			"type":"VEC2"
		},
		{
			"bufferView":3,
			"componentType":5126,
			"count":663,
			"type":"VEC4"
		},
		{
			"bufferView":4,
			"componentType":5123,
			"count":3720,
			"type":"SCALAR"
		},
		{
			"bufferView":5,
			"componentType":5126,
			"count":476,
			"max":[
				0.7378783226013184,
				0,
				0.6347070932388306
			],
			"min":[
				-0.7378783226013184,
				0,
				-1.347760796546936
			],
			"type":"VEC3"
		},
		{
			"bufferView":6,
			"componentType":5126,
			"count":476,
			"type":"VEC3"
		},
		{
			"bufferView":7,
			"componentType":5126,
			"count":476,
			"type":"VEC2"
		},
		{
			"bufferView":8,
			"componentType":5126,
			"count":476,
			"type":"VEC4"
		},
		{
			"bufferView":9,
			"componentType":5123,
			"count":2328,
			"type":"SCALAR"
		},
		{
			"bufferView":10,
			"componentType":5126,
			"count":1931,
			"max":[
				1.0000922679901123,
				0,
				0
			],
			"min":[
				-1.0000922679901123,
				0,
				-1.5992860794067383
			],
			"type":"VEC3"
		},
		{
			"bufferView":11,
			"componentType":5126,
			"count":1931,
			"type":"VEC3"
		},
		{
			"bufferView":12,
			"componentType":5126,
			"count":1931,
			"type":"VEC2"
		},
		{
			"bufferView":13,
			"componentType":5126,
			"count":1931,
			"type":"VEC4"
		},
		{
			"bufferView":14,
			"componentType":5123,
			"count":8208,
			"type":"SCALAR"
		},
		{
			"bufferView":15,
			"componentType":5126,
			"count":4195,
			"max":[
				1.4064332246780396,
				0,
				0
			],
			"min":[
				-1.4064332246780396,
				0,
				-1.4901955127716064
			],
			"type":"VEC3"
		},
		{
			"bufferView":16,
			"componentType":5126,
			"count":4195,
			"type":"VEC3"
		},
		{
			"bufferView":17,
			"componentType":5126,
			"count":4195,
			"type":"VEC2"
		},
		{
			"bufferView":18,
			"componentType":5126,
			"count":4195,
			"type":"VEC4"
		},
		{
			"bufferView":19,
			"componentType":5123,
			"count":23952,
			"type":"SCALAR"
		},
		{
			"bufferView":20,
			"componentType":5126,
			"count":1625,
			"max":[
				0.3751499652862549,
				0,
				-0.0008095504017546773
			],
			"min":[
				-0.3751499652862549,
				0,
				-1.987959861755371
			],
			"type":"VEC3"
		},
		{
			"bufferView":21,
			"componentType":5126,
			"count":1625,
			"type":"VEC3"
		},
		{
			"bufferView":22,
			"componentType":5126,
			"count":1625,
			"type":"VEC2"
		},
		{
			"bufferView":23,
			"componentType":5126,
			"count":1625,
			"type":"VEC4"
		},
		{
			"bufferView":24,
			"componentType":5123,
			"count":9216,
			"type":"SCALAR"
		},
		{
			"bufferView":25,
			"componentType":5126,
			"count":1625,
			"max":[
				0.3751499652862549,
				0,
				-0.0008095504017546773
			],
			"min":[
				-0.3751499652862549,
				0,
				-1.987959861755371
			],
			"type":"VEC3"
		},
		{
			"bufferView":26,
			"componentType":5126,
			"count":1625,
			"type":"VEC3"
		},
		{
			"bufferView":27,
			"componentType":5126,
			"count":1625,
			"type":"VEC2"
		},
		{
			"bufferView":28,
			"componentType":5126,
			"count":1625,
			"type":"VEC4"
		},
		{
			"bufferView":29,
			"componentType":5126,
			"count":33,
			"max":[
				0.17330218851566315,
				0,
				0.17330218851566315
			],
			"min":[
				-0.17330218851566315,
				0,
				-0.17330218851566315
			],
			"type":"VEC3"
		},
		{
			"bufferView":30,
			"componentType":5126,
			"count":33,
			"type":"VEC3"
		},
		{
			"bufferView":31,
			"componentType":5126,
			"count":33,
			"type":"VEC2"
		},
		{
			"bufferView":32,
			"componentType":5126,
			"count":33,
			"type":"VEC4"
		},
		{
			"bufferView":33,
			"componentType":5123,
			"count":96,
			"type":"SCALAR"
		},
		{
			"bufferView":34,
			"componentType":5126,
			"count":191,
			"max":[
				0.5089347958564758,
				0,
				0.5113973021507263
			],
			"min":[
				-0.5113973021507263,
				0,
				-0.5113973021507263
			],
			"type":"VEC3"
		},
		{
			"bufferView":35,
			"componentType":5126,
			"count":191,
			"type":"VEC3"
		},
		{
			"bufferView":36,
			"componentType":5126,
			"count":191,
			"type":"VEC2"
		},
		{
			"bufferView":37,
			"componentType":5126,
			"count":191,
			"type":"VEC4"
		},
		{
			"bufferView":38,
			"componentType":5123,
			"count":756,
			"type":"SCALAR"
		},
		{
			"bufferView":39,
			"componentType":5126,
			"count":18,
			"max":[
				0.3115159273147583,
				0,
				0.4993903338909149
			],
			"min":[
				-0.2890617847442627,
				0,
				-0.5007447600364685
			],
			"type":"VEC3"
		},
		{
			"bufferView":40,
			"componentType":5126,
			"count":18,
			"type":"VEC3"
		},
		{
			"bufferView":41,
			"componentType":5126,
			"count":18,
			"type":"VEC2"
		},
		{
			"bufferView":42,
			"componentType":5126,
			"count":18,
			"type":"VEC4"
		},
		{
			"bufferView":43,
			"componentType":5123,
			"count":54,
			"type":"SCALAR"
		}
	],
	"bufferViews":[
		{
			"buffer":0,
			"byteLength":7956,
			"byteOffset":0,
			"target":34962
		},
		{
			"buffer":0,
			"byteLength":7956,
			"byteOffset":7956,
			"target":34962
		},
		{
			"buffer":0,
			"byteLength":5304,
			"byteOffset":15912,
			"target":34962
		},
		{
			"buffer":0,
			"byteLength":10608,
			"byteOffset":21216,
			"target":34962
		},
		{
			"buffer":0,
			"byteLength":7440,
			"byteOffset":31824,
			"target":34963
		},
		{
			"buffer":0,
			"byteLength":5712,
			"byteOffset":39264,
			"target":34962
		},
		{
			"buffer":0,
			"byteLength":5712,
			"byteOffset":44976,
			"target":34962
		},
		{
			"buffer":0,
			"byteLength":3808,
			"byteOffset":50688,
			"target":34962
		},
		{
			"buffer":0,
			"byteLength":7616,
			"byteOffset":54496,
			"target":34962
		},
		{
			"buffer":0,
			"byteLength":4656,
			"byteOffset":62112,
			"target":34963
		},
		{
			"buffer":0,
			"byteLength":23172,
			"byteOffset":66768,
			"target":34962
		},
		{
			"buffer":0,
			"byteLength":23172,
			"byteOffset":89940,
			"target":34962
		},
		{
			"buffer":0,
			"byteLength":15448,
			"byteOffset":113112,
			"target":34962
		},
		{
			"buffer":0,
			"byteLength":30896,
			"byteOffset":128560,
			"target":34962
		},
		{
			"buffer":0,
			"byteLength":16416,
			"byteOffset":159456,
			"target":34963
		},
		{
			"buffer":0,
			"byteLength":50340,
			"byteOffset":175872,
			"target":34962
		},
		{
			"buffer":0,
			"byteLength":50340,
			"byteOffset":226212,
			"target":34962
		},
		{
			"buffer":0,
			"byteLength":33560,
			"byteOffset":276552,
			"target":34962
		},
		{
			"buffer":0,
			"byteLength":67120,
			"byteOffset":310112,
			"target":34962
		},
		{
			"buffer":0,
			"byteLength":47904,
			"byteOffset":377232,
			"target":34963
		},
		{
			"buffer":0,
			"byteLength":19500,
			"byteOffset":425136,
			"target":34962
		},
		{
			"buffer":0,
			"byteLength":19500,
			"byteOffset":444636,
			"target":34962
		},
		{
			"buffer":0,
			"byteLength":13000,
			"byteOffset":464136,
			"target":34962
		},
		{
			"buffer":0,
			"byteLength":26000,
			"byteOffset":477136,
			"target":34962
		},
		{
			"buffer":0,
			"byteLength":18432,
			"byteOffset":503136,
			"target":34963
		},
		{
			"buffer":0,
			"byteLength":19500,
			"byteOffset":521568,
			"target":34962
		},
		{
			"buffer":0,
			"byteLength":19500,
			"byteOffset":541068,
			"target":34962
		},
		{
			"buffer":0,
			"byteLength":13000,
			"byteOffset":560568,
			"target":34962
		},
		{
			"buffer":0,
			"byteLength":26000,
			"byteOffset":573568,
			"target":34962
		},
		{
			"buffer":0,
			"byteLength":396,
			"byteOffset":599568,
			"target":34962
		},
		{
			"buffer":0,
			"byteLength":396,
			"byteOffset":599964,
			"target":34962
		},
		{
			"buffer":0,
			"byteLength":264,
			"byteOffset":600360,
			"target":34962
		},
		{
			"buffer":0,
			"byteLength":528,
			"byteOffset":600624,
			"target":34962
		},
		{
			"buffer":0,
			"byteLength":192,
			"byteOffset":601152,
			"target":34963
		},
		{
			"buffer":0,
			"byteLength":2292,
			"byteOffset":601344,
			"target":34962
		},
		{
			"buffer":0,
			"byteLength":2292,
			"byteOffset":603636,
			"target":34962
		},
		{
			"buffer":0,
			"byteLength":1528,
			"byteOffset":605928,
			"target":34962
		},
		{
			"buffer":0,
			"byteLength":3056,
			"byteOffset":607456,
			"target":34962
		},
		{
			"buffer":0,
			"byteLength":1512,
			"byteOffset":610512,
			"target":34963
		},
		{
			"buffer":0,
			"byteLength":216,
			"byteOffset":612024,
			"target":34962
		},
		{
			"buffer":0,
			"byteLength":216,
			"byteOffset":612240,
			"target":34962
		},
		{
			"buffer":0,
			"byteLength":144,
			"byteOffset":612456,
			"target":34962
		},
		{
			"buffer":0,
			"byteLength":288,
			"byteOffset":612600,
			"target":34962
		},
		{
			"buffer":0,
			"byteLength":108,
			"byteOffset":612888,
			"target":34963
		}
	],
	"buffers":[
		{
			"byteLength":612996,
			"uri":"assets-6f9e25eaea50bd1a8d58466da737f4b6.bin"
		}
	]
}
